<?xml version="1.0" encoding="UTF-8" standalone="no"?>
<!DOCTYPE svg PUBLIC "-//W3C//DTD SVG 1.1//EN" "http://www.w3.org/Graphics/SVG/1.1/DTD/svg11.dtd">
<svg version="1.1" xmlns="http://www.w3.org/2000/svg" xmlns:xlink="http://www.w3.org/1999/xlink" preserveAspectRatio="xMidYMid meet" viewBox="0 0 640 640" width="640" height="640"><defs><path d="M363.56 74.67C304.27 74.67 248.59 106.72 217.85 152.92C204.34 143.93 188.12 138.67 170.67 138.67C123.54 138.67 85.33 176.87 85.33 224C85.33 225.63 85.48 227.22 85.58 228.84C85.47 230.78 85.33 232.75 85.33 234.67C42.79 255.06 10.67 303.54 10.67 353.65C10.67 423.15 67.52 480 137.01 480C163.15 480 372.28 480 398.42 480C399.89 480 401.32 479.83 402.77 479.78C404.23 479.83 405.66 480 407.14 480C417.59 480 501.24 480 511.7 480C576.39 480 629.33 427.06 629.33 362.37C629.33 305.08 587.8 255.58 533.37 245.33C532.14 152.54 456.64 74.67 363.56 74.67Z" id="b319LBx6yn"></path><path d="M407.14 490.67C406.03 490.67 404.92 490.6 403.82 490.52C403.72 490.51 403.25 490.48 402.4 490.43C402 490.48 401.77 490.51 401.73 490.52C400.64 490.6 399.54 490.67 398.42 490.67C372.28 490.67 163.15 490.67 137.01 490.67C61.46 490.67 0 429.19 0 353.64C0 302.92 30.47 252.25 74.84 228.06C74.75 226.72 74.67 225.38 74.67 224C74.67 171.06 117.74 128 170.67 128C186.14 128 201.22 131.69 214.81 138.75C249.56 92.41 305.65 64 363.56 64C458.97 64 538.1 140.74 543.73 236.74C599.18 251.31 640 303.82 640 362.37C640 433.11 582.44 490.67 511.7 490.67C490.79 490.67 417.59 490.67 407.14 490.67ZM405.28 469.24C405.89 469.28 406.51 469.33 407.14 469.33C417.59 469.33 501.24 469.33 511.7 469.33C570.68 469.33 618.67 421.34 618.67 362.37C618.67 311 581.14 265.19 531.39 255.82C530.82 255.71 527.96 255.17 522.82 254.21C522.75 248.98 522.71 246.07 522.7 245.49C521.55 157.17 450.15 85.33 363.56 85.33C310.15 85.33 256.45 114.18 226.73 158.83C226.34 159.42 224.37 162.38 220.82 167.71C215.49 164.17 212.53 162.2 211.94 161.8C199.69 153.64 185.41 149.33 170.67 149.33C129.49 149.33 96 182.84 96 224C96 224.9 96.06 225.78 96.13 226.67C96.14 226.81 96.18 227.53 96.26 228.82C96.2 229.93 96.17 230.54 96.16 230.67C96.09 232.01 96 233.35 96 234.67C96 235.11 96 237.35 96 241.39C92.36 243.12 90.35 244.08 89.94 244.28C50.19 263.34 21.33 309.33 21.33 353.64C21.33 417.44 73.23 469.33 137.01 469.33C163.15 469.33 372.28 469.33 398.42 469.33C399.05 469.33 399.66 469.28 400.28 469.24C400.42 469.23 401.13 469.19 402.4 469.12C404.13 469.19 405.09 469.23 405.28 469.24Z" id="dQhCcuaet"></path><path d="M533.37 245.33C533.37 245.33 506.33 241.33 480 245.33" id="eHCAUXeqp"></path><path d="M469.46 246.93C468.58 241.11 472.58 235.67 478.4 234.78C506.02 230.58 533.75 234.59 534.93 234.77C540.76 235.64 544.78 241.06 543.93 246.88C543.07 252.71 537.56 256.65 531.82 255.88C531.55 255.85 505.96 252.2 481.61 255.87C481.06 255.96 480.52 256 479.99 256C474.81 256 470.26 252.22 469.46 246.93Z" id="hgSViVt28"></path><path d="M85.33 224C85.33 176.87 123.54 138.67 170.67 138.67C217.79 138.67 256 176.87 256 224" id="b31cRH1jK3"></path><path d="M245.33 224C245.33 182.84 211.84 149.33 170.67 149.33C129.49 149.33 96 182.84 96 224C96 229.9 91.22 234.67 85.33 234.67C79.45 234.67 74.67 229.9 74.67 224C74.67 171.06 117.74 128 170.67 128C223.59 128 266.67 171.06 266.67 224C266.67 229.9 261.89 234.67 256 234.67C250.11 234.67 245.33 229.9 245.33 224Z" id="aFn36KT7v"></path><path d="M350 373.5L335 373.5L335 351L305 351L305 373.5L290 373.5L290 336L350 336L350 373.5Z" id="b2UStieNWh"></path><path d="M267.5 576C255.07 576 245 565.93 245 553.5C245 543 245 490.5 245 396L395 396C395 490.5 395 543 395 553.5C395 565.93 384.93 576 372.5 576C351.5 576 278 576 267.5 576Z" id="a5zwh7EjT"></path><path d="M410 411L230 411C230 393 230 383 230 381C230 372.72 236.72 366 245 366C260 366 380 366 395 366C403.28 366 410 372.72 410 381C410 385 410 395 410 411Z" id="h2cgD88uaJ"></path><path d="M341.27 457.88C339.98 459.17 333.51 465.63 321.88 477.27C310.24 465.63 303.77 459.17 302.48 457.88C299.55 454.95 294.8 454.95 291.88 457.88C288.95 460.8 288.95 465.55 291.88 468.48C293.17 469.77 299.63 476.24 311.27 487.88C299.63 499.51 293.17 505.98 291.88 507.27C288.95 510.2 288.95 514.95 291.88 517.88C294.8 520.8 299.55 520.8 302.48 517.88C303.77 516.58 310.24 510.12 321.88 498.48C333.51 510.12 339.98 516.58 341.27 517.88C344.2 520.8 348.95 520.8 351.88 517.88C354.8 514.95 354.8 510.2 351.88 507.27C350.58 505.98 344.12 499.51 332.48 487.88C344.12 476.24 350.58 469.77 351.88 468.48C354.8 465.55 354.8 460.8 351.88 457.88C348.95 454.95 344.2 454.95 341.27 457.88Z" id="ezWVxPzwc"></path></defs><g><g><g><use xlink:href="#b319LBx6yn" opacity="1" fill="#91bae1" fill-opacity="1"></use><g><use xlink:href="#b319LBx6yn" opacity="1" fill-opacity="0" stroke="#000000" stroke-width="1" stroke-opacity="0"></use></g></g><g><use xlink:href="#dQhCcuaet" opacity="1" fill="#8697cb" fill-opacity="1"></use><g><use xlink:href="#dQhCcuaet" opacity="1" fill-opacity="0" stroke="#000000" stroke-width="1" stroke-opacity="0"></use></g></g><g><use xlink:href="#eHCAUXeqp" opacity="1" fill="#91bae1" fill-opacity="1"></use><g><use xlink:href="#eHCAUXeqp" opacity="1" fill-opacity="0" stroke="#000000" stroke-width="1" stroke-opacity="0"></use></g></g><g><use xlink:href="#hgSViVt28" opacity="1" fill="#8697cb" fill-opacity="1"></use><g><use xlink:href="#hgSViVt28" opacity="1" fill-opacity="0" stroke="#000000" stroke-width="1" stroke-opacity="0"></use></g></g><g><use xlink:href="#b31cRH1jK3" opacity="1" fill="#91bae1" fill-opacity="1"></use><g><use xlink:href="#b31cRH1jK3" opacity="1" fill-opacity="0" stroke="#000000" stroke-width="1" stroke-opacity="0"></use></g></g><g><use xlink:href="#aFn36KT7v" opacity="1" fill="#8697cb" fill-opacity="1"></use><g><use xlink:href="#aFn36KT7v" opacity="1" fill-opacity="0" stroke="#000000" stroke-width="1" stroke-opacity="0"></use></g></g><g><use xlink:href="#b2UStieNWh" opacity="1" fill="#62808c" fill-opacity="1"></use><g><use xlink:href="#b2UStieNWh" opacity="1" fill-opacity="0" stroke="#000000" stroke-width="1" stroke-opacity="0"></use></g></g><g><use xlink:href="#a5zwh7EjT" opacity="1" fill="#e76e54" fill-opacity="1"></use><g><use xlink:href="#a5zwh7EjT" opacity="1" fill-opacity="0" stroke="#000000" stroke-width="1" stroke-opacity="0"></use></g></g><g><use xlink:href="#h2cgD88uaJ" opacity="1" fill="#77959e" fill-opacity="1"></use><g><use xlink:href="#h2cgD88uaJ" opacity="1" fill-opacity="0" stroke="#000000" stroke-width="1" stroke-opacity="0"></use></g></g><g><use xlink:href="#ezWVxPzwc" opacity="1" fill="#ffffff" fill-opacity="1"></use><g><use xlink:href="#ezWVxPzwc" opacity="1" fill-opacity="0" stroke="#000000" stroke-width="1" stroke-opacity="0"></use></g></g></g></g></svg>